Coordinates
version=1
nRows=8
nColumns=40
inDegrees=yes

Units are S.I. units (second, meters, Newtons, ...)
Angles are in degrees.

endheader
time	pelvis_tilt	pelvis_list	pelvis_rotation	pelvis_tx	pelvis_ty	pelvis_tz	hip_flexion_r	hip_adduction_r	hip_rotation_r	knee_angle_r	knee_angle_r_beta	ankle_angle_r	subtalar_angle_r	mtp_angle_r	hip_flexion_l	hip_adduction_l	hip_rotation_l	knee_angle_l	knee_angle_l_beta	ankle_angle_l	subtalar_angle_l	mtp_angle_l	lumbar_extension	lumbar_bending	lumbar_rotation	arm_flex_r	arm_add_r	arm_rot_r	elbow_flex_r	pro_sup_r	wrist_flex_r	wrist_dev_r	arm_flex_l	arm_add_l	arm_rot_l	elbow_flex_l	pro_sup_l	wrist_flex_l	wrist_dev_l
      5.73250000	     -6.88515536	     -4.95670686	      1.72558241	      1.07053884	      0.91561894	      0.43637976	      1.75305139	     -1.59573665	    -13.60340433	     29.35376689	     29.35376689	     15.55808761	      3.22816603	    -10.24802408	     31.15096201	     -6.13792712	     -1.43331906	     28.13143666	     28.13143666	      7.38367629	    -13.44138085	      5.53346714	     -8.74514773	      4.88376939	      4.44134675	     35.42034907	    -13.20718019	      8.34848842	    106.25686670	     44.07190165	      0.00000000	      0.00000000	     -7.51562151	     -7.70075548	      6.33321616	     28.96540620	     43.80176000	      0.00000000	      0.00000000
      5.74371429	     -6.82957995	     -4.87420698	      1.57557580	      1.07063968	      0.91710963	      0.43415630	      2.85273207	     -2.16535889	    -13.03455208	     31.91014518	     31.91014518	     11.67004456	      0.47443142	    -17.57723458	     30.39180090	     -5.96210697	     -1.53696214	     28.03117852	     28.03117852	      8.24063770	    -13.40713723	      6.42362433	     -8.81109937	      4.87210515	      4.66121744	     33.01408189	    -13.29918169	      7.53087863	    104.73587893	     44.20791533	      0.00000000	      0.00000000	     -5.71451151	     -7.55912611	      5.20276330	     28.17768691	     44.18926347	      0.00000000	      0.00000000
      5.75492857	     -6.83590862	     -4.75420403	      1.35790117	      1.07048075	      0.91838447	      0.43211836	      4.51775996	     -2.94171292	    -12.60669440	     35.57891446	     35.57891446	     10.00529169	     -0.80881841	    -17.85410022	     29.61832144	     -5.79927180	     -1.80561813	     27.74213009	     27.74213009	      8.63379332	    -13.38709464	      6.30672568	     -8.84186910	      4.80766360	      4.76139008	     30.87750401	    -13.77317981	      7.83566925	    103.09317717	     44.24834417	      0.00000000	      0.00000000	     -4.47024454	     -7.80554643	      4.94943212	     28.86481776	     44.26475619	      0.00000000	      0.00000000
      5.76614286	     -6.84766377	     -4.65111656	      1.12334644	      1.07006954	      0.91951175	      0.43031413	      6.35970124	     -3.61320041	    -12.00365989	     39.36904485	     39.36904485	      8.06356318	     -2.56425260	    -17.89908177	     28.87688355	     -5.65145810	     -2.03205288	     27.46219567	     27.46219567	      8.97720021	    -13.47378457	      6.21141183	     -8.88709789	      4.75769982	      4.87909922	     28.76187341	    -14.12663275	      7.97138855	    101.09765966	     44.30459648	      0.00000000	      0.00000000	     -3.15890020	     -8.04860750	      4.64969427	     29.65820733	     44.34518302	      0.00000000	      0.00000000
      5.77735714	     -6.91171337	     -4.58564456	      0.85714613	      1.06939185	      0.92044459	      0.42877032	      8.42106805	     -4.11305241	    -11.18740400	     43.21499287	     43.21499287	      5.90239883	     -4.71942775	    -17.57878716	     28.20677726	     -5.55342854	     -2.22271119	     27.16245031	     27.16245031	      9.23712149	    -13.61516365	      6.13658448	     -8.89278888	      4.73479887	      5.04472044	     26.75546074	    -14.45267977	      7.91392789	     98.66171612	     44.38187086	      0.00000000	      0.00000000	     -1.88300724	     -8.31982765	      4.25670483	     30.60262637	     44.43836372	      0.00000000	      0.00000000
      5.78857143	     -6.88774210	     -4.69757455	      0.63698420	      1.06854489	      0.92138990	      0.42749059	     10.44675318	     -4.21095807	    -10.22234473	     46.93833687	     46.93833687	      3.74201088	     -7.34211292	    -16.36301356	     27.53019270	     -5.61942294	     -2.22071265	     26.96034817	     26.96034817	      9.46346441	    -13.85521574	      5.95852800	     -8.96581083	      4.92088982	      5.01285600	     25.12791571	    -14.20637145	      7.37216618	     94.86041296	     44.52844429	      0.00000000	      0.00000000	     -0.81036492	     -8.59572556	      3.34459919	     32.16709556	     44.62349151	      0.00000000	      0.00000000
      5.79978571	     -6.87503783	     -4.60626121	      0.38246488	      1.06750208	      0.92210885	      0.42628004	     12.65134720	     -4.61110136	     -9.44402652	     50.83132787	     50.83132787	      2.16592417	     -8.99913450	    -13.83462153	     26.83513627	     -5.52457580	     -2.45844813	     26.71368812	     26.71368812	      9.69577747	    -13.91987253	      5.64669378	     -9.07983919	      4.85241664	      4.46488503	     23.95761485	    -13.54538721	      7.26029533	     90.74826711	     44.68153844	      0.00000000	      0.00000000	     -0.15443961	     -8.96178762	      1.79320929	     34.24836172	     44.91159561	      0.00000000	      0.00000000
      5.81100000	     -6.90436211	     -4.43599197	      0.11374527	      1.06630966	      0.92264046	      0.42511575	     14.89068661	     -5.07347367	     -8.74665236	     54.43445360	     54.43445360	      0.24452147	    -10.71787258	    -12.78181833	     26.18919007	     -5.35225039	     -2.75810969	     26.46928540	     26.46928540	      9.99750122	    -13.96293269	      5.53864621	     -9.21699262	      4.73424293	      4.62047928	     22.04946570	    -13.97610082	      7.55426309	     88.59775457	     44.73699116	      0.00000000	      0.00000000	      1.28859102	     -9.31727104	      1.38705719	     35.31433253	     44.99817242	      0.00000000	      0.00000000
